<?xml version="1.0" encoding="utf-8"?>
<!-- Generator: Adobe Illustrator 17.0.0, SVG Export Plug-In . SVG Version: 6.00 Build 0)  -->
<!DOCTYPE svg PUBLIC "-//W3C//DTD SVG 1.1//EN" "http://www.w3.org/Graphics/SVG/1.1/DTD/svg11.dtd">
<svg version="1.1" id="Layer_1" xmlns="http://www.w3.org/2000/svg" xmlns:xlink="http://www.w3.org/1999/xlink" x="0px" y="0px"
	 width="250.748px" height="47.526px" viewBox="-73.268 -128.936 250.748 47.526"
	 enable-background="new -73.268 -128.936 250.748 47.526" xml:space="preserve">
<g>
	<path fill="#231F20" d="M176.097-84.733h1.315v-12.032h-1.315V-84.733z M170.303-85.712c-1.262,0-1.918-0.87-1.918-2.008v-2.719
		c0-1.12,0.656-2.009,1.918-2.009c1.28,0,2.045,0.942,2.045,2.151v2.452C172.348-86.635,171.583-85.712,170.303-85.712
		 M167.088-87.772c0,1.954,1.119,3.218,3.002,3.218c1.013,0,1.848-0.445,2.364-1.175l0.194,0.996h0.995v-8.69h-0.995l-0.194,0.994
		c-0.517-0.729-1.333-1.173-2.364-1.173c-1.883,0-3.002,1.263-3.002,3.218V-87.772z M161.205-92.27h1.669v7.536h1.315v-7.536h1.671
		v-1.102h-1.671v-2.363h-1.315v2.363h-1.669V-92.27z M158.343-84.733h1.298v-8.69h-1.298V-84.733z M158.147-95.877
		c0,0.462,0.374,0.836,0.853,0.836c0.463,0,0.836-0.374,0.836-0.836c0-0.479-0.373-0.854-0.836-0.854
		C158.521-96.73,158.147-96.356,158.147-95.877 M153.012-92.447c1.262,0,1.92,0.889,1.92,2.009v2.719
		c0,1.138-0.658,2.008-1.92,2.008c-1.279,0-2.044-0.923-2.044-2.132v-2.452C150.968-91.505,151.732-92.447,153.012-92.447
		 M150.665-93.424h-0.995v12.014h1.298v-4.193c0.516,0.675,1.298,1.049,2.257,1.049c1.884,0,3.004-1.264,3.004-3.218v-2.612
		c0-1.955-1.12-3.218-3.004-3.218c-1.031,0-1.848,0.444-2.363,1.191L150.665-93.424z M141.371-87.417v0.231
		c0,1.635,1.35,2.631,3.252,2.631c1.885,0,3.092-1.086,3.092-2.648c0-1.513-1.047-2.045-2.345-2.453l-1.476-0.463
		c-0.729-0.213-1.048-0.568-1.048-1.154c0-0.89,0.906-1.298,1.706-1.298c1.191,0,1.866,0.64,1.866,1.44v0.213h1.226v-0.143
		c0-1.6-1.262-2.542-3.092-2.542c-1.742,0-2.934,1.12-2.934,2.435c0,1.352,0.996,1.975,2.01,2.275l1.67,0.516
		c0.816,0.248,1.155,0.604,1.155,1.314c0,0.853-0.64,1.459-1.849,1.459c-1.279,0-2.025-0.641-2.025-1.512v-0.302h-1.208V-87.417z
		 M139.808-90.225c0-2.081-1.351-3.378-3.323-3.378s-3.306,1.297-3.306,3.378v2.292c0,2.079,1.333,3.378,3.306,3.378
		s3.323-1.299,3.323-3.378V-90.225z M134.477-90.314c0-1.226,0.728-2.15,2.008-2.15c1.279,0,2.008,0.925,2.008,2.15v2.488
		c0,1.227-0.729,2.149-2.008,2.149c-1.28,0-2.008-0.923-2.008-2.149V-90.314z M130.904-96.41h-1.369v5.1h-4.779v-5.1h-1.352v11.677
		h1.352v-5.351h4.779v5.351h1.369V-96.41z M115.585-89.604c0,0.498,0.392,0.888,0.888,0.888c0.498,0,0.906-0.39,0.906-0.888
		c0-0.516-0.408-0.906-0.906-0.906C115.977-90.51,115.585-90.119,115.585-89.604 M106.397-85.712c-1.263,0-1.919-0.87-1.919-2.008
		v-2.719c0-1.12,0.656-2.009,1.919-2.009c1.28,0,2.044,0.942,2.044,2.151v2.452C108.441-86.635,107.678-85.712,106.397-85.712
		 M103.182-87.772c0,1.954,1.118,3.218,3.002,3.218c1.014,0,1.849-0.445,2.363-1.175l0.195,0.996h0.996v-8.69h-0.996l-0.195,0.994
		c-0.515-0.729-1.332-1.173-2.363-1.173c-1.884,0-3.002,1.263-3.002,3.218V-87.772z M95.877-84.733v-5.562
		c0-1.209,0.764-2.151,2.043-2.151c1.263,0,1.919,0.889,1.919,2.009v5.705h1.299v-5.688c0-1.937-1.085-3.182-2.986-3.182
		c-1.03,0-1.866,0.444-2.382,1.209l-0.194-1.03h-0.995v8.69H95.877z M92.5-90.225c0-2.081-1.351-3.378-3.322-3.378
		c-1.973,0-3.306,1.297-3.306,3.378v2.292c0,2.079,1.333,3.378,3.306,3.378c1.972,0,3.322-1.299,3.322-3.378V-90.225z
		 M87.168-90.314c0-1.226,0.729-2.15,2.01-2.15c1.278,0,2.008,0.925,2.008,2.15v2.488c0,1.227-0.729,2.149-2.008,2.149
		c-1.28,0-2.01-0.923-2.01-2.149V-90.314z M82.406-84.733h1.314v-12.032h-1.314V-84.733z M75.066-90.35
		c0-1.244,0.729-2.186,2.025-2.186c1.262,0,1.99,0.941,1.99,2.186v0.426h-4.016v-0.426H75.066z M79.082-87.631v0.195
		c0,1.014-0.674,1.812-1.99,1.812c-1.279,0-2.025-0.889-2.025-2.043v-1.244h5.242v-1.314c0-2.081-1.314-3.378-3.217-3.378
		c-1.973,0-3.305,1.297-3.305,3.378v2.434c0,1.991,1.332,3.236,3.305,3.236c1.902,0,3.217-1.122,3.217-2.951v-0.125L79.082-87.631
		L79.082-87.631z M70.854-87.737v0.267c0,1.031-0.674,1.794-1.989,1.794c-1.28,0-2.009-0.923-2.009-2.149v-2.488
		c0-1.226,0.729-2.15,2.009-2.15c1.261,0,1.989,0.764,1.989,1.76v0.213h1.263v-0.105c0-1.85-1.315-3.005-3.252-3.005
		c-1.973,0-3.306,1.297-3.306,3.378v2.292c0,2.079,1.333,3.378,3.306,3.378c1.937,0,3.252-1.139,3.252-3.023v-0.159h-1.263V-87.737z
		 M61.879-84.733v-5.475c0-1.297,0.872-2.168,2.115-2.168c0.195,0,0.392,0.036,0.533,0.054v-1.244
		c-0.142-0.018-0.285-0.036-0.426-0.036c-1.014,0-1.831,0.497-2.311,1.28l-0.213-1.102h-0.996v8.69h1.298V-84.733z M54.861-85.712
		c-1.262,0-1.919-0.87-1.919-2.008v-2.719c0-1.12,0.657-2.009,1.919-2.009c1.279,0,2.044,0.942,2.044,2.151v2.452
		C56.905-86.635,56.14-85.712,54.861-85.712 M51.644-87.772c0,1.954,1.12,3.218,3.003,3.218c1.014,0,1.848-0.445,2.364-1.175
		l0.195,0.996h0.996v-8.69h-0.996l-0.195,0.994c-0.516-0.729-1.333-1.173-2.364-1.173c-1.883,0-3.003,1.263-3.003,3.218V-87.772z
		 M45.992-95.272c1.403,0,2.292,0.746,2.292,1.938c0,1.279-0.853,2.044-2.222,2.044h-2.345v-3.981h2.275V-95.272z M46.348-90.137
		c1.369,0,2.203,0.836,2.203,2.15c0,1.279-0.852,2.115-2.275,2.115h-2.558v-4.266h2.63V-90.137z M42.366-84.733h4.07
		c2.043,0,3.52-1.263,3.52-3.199c0-1.476-0.765-2.435-2.044-2.826v-0.017c1.101-0.428,1.759-1.315,1.759-2.613
		c0-1.83-1.494-3.021-3.555-3.021h-3.75V-84.733z"/>
	<path fill="#231F20" d="M169.374-105.627c0,2,0.94,3.48,3.102,3.48c1.062,0,1.883-0.439,2.362-1.06l0.18,0.86h2.462v-9.807h-2.802
		v6.124c0,0.841-0.521,1.44-1.341,1.44c-0.761,0-1.161-0.499-1.161-1.24v-6.324h-2.802L169.374-105.627L169.374-105.627z
		 M162.55-108.689c0-0.842,0.48-1.441,1.3-1.441c0.781,0,1.262,0.6,1.262,1.441v0.141h-2.562V-108.689z M165.111-105.808v0.099
		c0,0.803-0.439,1.342-1.222,1.342c-0.819,0-1.34-0.62-1.34-1.48v-0.841h5.224v-1.661c0-2.441-1.602-4.002-3.924-4.002
		c-2.4,0-4.041,1.561-4.041,4.002v2.201c0,2.442,1.641,4.002,4.041,4.002c2.322,0,3.924-1.4,3.924-3.602v-0.06H165.111z
		 M166.473-115.435l-1.742-1.581l-2.221,2.763l1.301,1.1L166.473-115.435z M153.344-112.893c1.261,0,1.961,0.74,1.961,2.021v3.902
		c0,1.281-0.7,2.021-1.961,2.021h-1.801v-7.945h1.801V-112.893z M153.344-115.494h-4.703v13.148h4.703
		c3.103,0,4.863-1.762,4.863-4.562v-4.023C158.207-113.732,156.446-115.494,153.344-115.494 M137.894-108.689
		c0-0.842,0.481-1.441,1.302-1.441c0.779,0,1.26,0.6,1.26,1.441v0.141h-2.562V-108.689z M140.455-105.808v0.099
		c0,0.803-0.439,1.342-1.221,1.342c-0.82,0-1.341-0.62-1.341-1.48v-0.841h5.224v-1.661c0-2.441-1.602-4.002-3.922-4.002
		c-2.401,0-4.043,1.561-4.043,4.002v2.201c0,2.442,1.642,4.002,4.043,4.002c2.32,0,3.922-1.4,3.922-3.602v-0.06H140.455z
		 M129.27-104.588c-0.822,0-1.262-0.6-1.262-1.44v-2.441c0-0.841,0.439-1.441,1.262-1.441c0.82,0,1.34,0.601,1.34,1.441v2.441
		C130.609-105.188,130.09-104.588,129.27-104.588 M130.949-102.346h2.463v-13.549h-2.803v4.383c-0.479-0.5-1.181-0.84-2.102-0.84
		c-2.222,0-3.301,1.641-3.301,3.882v2.441c0,2.242,1.079,3.882,3.301,3.882c1.041,0,1.801-0.42,2.281-1.039L130.949-102.346z
		 M114.5-102.346v-6.124c0-0.841,0.52-1.441,1.34-1.441c0.821,0,1.262,0.601,1.262,1.441v6.124h2.801v-6.324
		c0-2.121-0.979-3.682-3.201-3.682c-1.062,0-1.882,0.439-2.382,1.08l-0.161-0.881h-2.461v9.807L114.5-102.346L114.5-102.346z
		 M105.473-104.588c-0.818,0-1.26-0.6-1.26-1.44v-2.441c0-0.841,0.441-1.441,1.26-1.441c0.821,0,1.342,0.601,1.342,1.441v2.441
		C106.814-105.188,106.294-104.588,105.473-104.588 M101.411-106.028c0,2.242,1.081,3.882,3.302,3.882
		c1.04,0,1.801-0.42,2.281-1.039l0.16,0.84h2.463v-9.807h-2.463l-0.16,0.84c-0.48-0.6-1.241-1.039-2.281-1.039
		c-2.221,0-3.302,1.641-3.302,3.882V-106.028z M99.97-108.35c0-2.441-1.661-4.002-4.103-4.002s-4.104,1.561-4.104,4.002v2.201
		c0,2.442,1.662,4.002,4.104,4.002s4.103-1.56,4.103-4.002V-108.35z M94.566-108.549c0-0.842,0.48-1.441,1.301-1.441
		s1.301,0.6,1.301,1.441v2.602c0,0.84-0.48,1.44-1.301,1.44s-1.301-0.601-1.301-1.44V-108.549z M83.06-112.973h3.902v6.704
		c0,0.94-0.501,1.521-1.362,1.521c-0.859,0-1.36-0.581-1.36-1.521v-0.46h-2.902v0.521c0,2.502,1.723,4.062,4.263,4.062
		c2.542,0,4.263-1.56,4.263-4.062v-9.286h-6.803v2.521H83.06z M72.072-109.69h1.501v7.345h2.802v-7.345h1.541v-2.361h-1.541v-2.683
		h-2.802v2.683h-1.501V-109.69z M65.347-102.346v-6.124c0-0.841,0.521-1.441,1.341-1.441s1.262,0.601,1.262,1.441v6.124h2.802
		v-6.324c0-2.121-0.979-3.682-3.202-3.682c-1.061,0-1.881,0.439-2.381,1.08l-0.161-0.881h-2.462v9.807L65.347-102.346
		L65.347-102.346z M56.322-104.588c-0.821,0-1.261-0.6-1.261-1.44v-2.441c0-0.841,0.44-1.441,1.261-1.441
		c0.82,0,1.34,0.601,1.34,1.441v2.441C57.663-105.188,57.143-104.588,56.322-104.588 M52.258-106.028
		c0,2.242,1.081,3.882,3.303,3.882c1.04,0,1.802-0.42,2.281-1.039l0.159,0.84h2.462v-9.807h-2.462l-0.159,0.84
		c-0.479-0.6-1.241-1.039-2.281-1.039c-2.222,0-3.303,1.641-3.303,3.882V-106.028z M50.618-111.432v-0.301
		c0-2.441-1.801-3.963-4.463-3.963c-2.723,0-4.304,1.803-4.304,3.844c0,1.9,1.042,3.041,3.043,3.763l2.062,0.739
		c0.86,0.301,1.1,0.861,1.1,1.422c0,0.801-0.62,1.381-1.821,1.381c-1.12,0-1.801-0.5-1.801-1.461v-0.58h-2.862v0.48
		c0,2.441,1.96,3.961,4.743,3.961c2.782,0,4.583-1.7,4.583-4.102c0-2.481-1.642-3.322-3.362-3.923l-1.722-0.601
		c-1-0.34-1.14-0.94-1.14-1.28c0-0.721,0.54-1.241,1.481-1.241c0.94,0,1.601,0.561,1.601,1.461v0.4L50.618-111.432L50.618-111.432z"
		/>
	<path fill="#929497" d="M-67.439-128.858c0.021-0.083,0.153-0.103,0.217-0.043c0.08,0.074,0.124,0.176,0.168,0.276
		c0.044,0.096,0.073,0.199,0.129,0.287c0.021,0.034,0.067,0.062,0.105,0.067c0.105,0.019,0.218-0.006,0.322,0.04
		c0.128,0.056,0.25-0.061,0.296-0.171c0.043-0.105,0.152-0.212,0.279-0.183c0.141,0.033,0.247,0.153,0.271,0.292
		c0.013,0.075,0.029,0.151,0.04,0.227c0.01,0.075,0.014,0.151,0.021,0.227c0.013,0.137,0.177,0.225,0.317,0.215
		c0.112-0.007,0.242-0.106,0.22-0.233c-0.031-0.177-0.004-0.355,0.015-0.53c0.008-0.072,0.094-0.135,0.141-0.204
		c0.056,0.04,0.152,0.066,0.17,0.118c0.059,0.188,0.103,0.377,0.113,0.569c0.008,0.144,0.107,0.268,0.234,0.327
		c0.102,0.048,0.17,0.139,0.222,0.24c0.102,0.061,0.129,0.053,0.153,0.053c-0.002-0.209,0.032-0.427,0.127-0.617
		c0.02-0.037,0.063-0.068,0.103-0.082c0.061-0.023,0.143,0.011,0.175,0.074c0.101,0.2,0.067,0.429,0.117,0.638l0.146,0.583
		c0.028,0.118,0.143,0.216,0.262,0.22c0.186,0.104,0.242,0.267,0.393,0.283c0.072,0.007,0.159-0.004,0.214,0.031
		c0.116,0.074,0.166,0.202,0.181,0.335s0.029,0.287,0.146,0.377c0.121,0.095,0.3,0.114,0.449,0.073
		c0.131-0.038,0.27-0.022,0.405-0.039c0.421-0.225,0.897-0.261,1.361-0.327c0.073-0.009,0.176,0.083,0.146,0.169
		c-0.019,0.053-0.078,0.127-0.117,0.127c-0.333,0.005-0.668-0.001-0.983,0.122c0.013,0.037,0.013,0.097,0.039,0.112
		c0.128,0.075,0.279,0.053,0.42,0.046c0.544-0.027,1.082-0.127,1.617-0.222c0.203-0.036,0.399-0.004,0.595,0.056l0.657-0.079
		c0.075-0.01,0.159,0.054,0.239,0.083c0.006,0.066,0.018,0.132,0.02,0.198c0.001,0.06-0.008,0.12-0.011,0.179
		c-0.008,0.116,0.117,0.169,0.216,0.176c0.19,0.014,0.367-0.077,0.552-0.081l0.193-0.003c0.102-0.001,0.206,0.088,0.188,0.2
		c-0.015,0.091,0.026,0.195,0,0.28c-0.021,0.066-0.086,0.149-0.145,0.166c-0.165,0.043-0.347,0.035-0.485,0.148
		c0.165,0.121,0.346,0.119,0.52,0.131c0.089,0.006,0.175,0.054,0.263,0.082c-0.054,0.17-0.195,0.186-0.313,0.193
		c-0.054,0.004-0.111,0.023-0.157,0.051c-0.086,0.049-0.077,0.188-0.012,0.249c0.089,0.083,0.218,0.073,0.321,0.056l0.461-0.079
		c0.132-0.022,0.256,0.083,0.337,0.194c0.075,0.104,0.203,0.124,0.326,0.143c0.093,0.013,0.157,0.086,0.192,0.17
		c0.072,0.182,0.003,0.389-0.115,0.529c-0.153,0.075-0.331,0.031-0.492,0.072c-0.289,0.072-0.575,0.195-0.823,0.361
		c-0.035,0.023-0.062,0.082-0.065,0.125c-0.004,0.145,0.105,0.28,0.252,0.278c0.308-0.005,0.597-0.109,0.902-0.158l0.428-0.073
		c0.074-0.012,0.165,0.029,0.238,0.062c0.057,0.098,0.058,0.133,0.045,0.152c-0.081,0.129-0.237,0.164-0.379,0.172
		c-0.155,0.008-0.307,0.041-0.446,0.109c-0.183,0.091-0.391,0.093-0.585,0.143c-0.035,0.01-0.087,0.09-0.08,0.126l0.068,0.378
		c-0.015,0.166-0.149,0.301-0.315,0.328c-0.161,0.026-0.307,0.101-0.455,0.17c-0.217,0.103-0.468,0.07-0.697,0.125
		c-0.09,0.022-0.194,0.024-0.269,0.072c-0.189,0.121-0.337,0.319-0.57,0.348c-0.385,0.045-0.765,0.131-1.147,0.191
		c0.579,0.131,1.155,0.045,1.731,0.043c0.363-0.101,0.739-0.173,1.112-0.07c0.26-0.031,0.515-0.109,0.78-0.086
		c0.035,0.004,0.076,0.031,0.102,0.058c-0.013,0.245-0.182,0.28-0.317,0.286c-0.245,0.01-0.473,0.1-0.706,0.158
		c-0.678,0.17-1.383,0.125-2.073,0.203l-0.938,0.107c-0.152,0.017-0.332,0.128-0.289,0.299l0.537,2.123l0.221,1.541
		c0.016,0.104,0.008,0.248-0.089,0.311c-0.037,0.022-0.098,0.021-0.144,0.012c-0.087-0.215-0.05-0.389-0.075-0.555
		c-0.02-0.123-0.089-0.209-0.172-0.293c-0.141-0.139-0.223-0.323-0.362-0.465c-0.027-0.028-0.031-0.078-0.047-0.118l-0.102-0.001
		c-0.091,0.18-0.083,0.407-0.024,0.701c0.044,0.224,0.109,0.441,0.108,0.672c0,0.075-0.026,0.157-0.073,0.23
		c-0.064-0.018-0.128-0.043-0.194-0.056c-0.186,0.319-0.138,0.692-0.013,1.167c0.069,0.264,0.153,0.556,0.067,0.816
		c-0.059,0.123-0.107,0.132-0.144,0.15c-0.032-0.042-0.086-0.078-0.095-0.123c-0.031-0.153-0.027-0.309-0.032-0.461
		c-0.006-0.259-0.224-0.503-0.462-0.578c-0.317,0.249-0.433,0.588-0.354,0.919c0.01,0.044,0.002,0.099-0.013,0.142
		c-0.166,0.135-0.278,0.058-0.283-0.047c-0.02-0.447-0.081-0.896-0.161-1.336c-0.025-0.141-0.119-0.256-0.229-0.346
		c-0.025-0.021-0.078-0.011-0.116-0.017c-0.026,0.052-0.083,0.108-0.076,0.155c0.019,0.134-0.067,0.242-0.145,0.336
		c-0.043,0.053-0.117,0.103-0.118,0.155c-0.017,0.432,0.067,0.868-0.024,1.299c-0.022,0.106-0.131,0.198-0.238,0.178
		c-0.124-0.022-0.179-0.129-0.181-0.249c-0.003-0.184-0.03-0.373-0.132-0.533c-0.07-0.113-0.075-0.254-0.101-0.383
		c-0.084-0.154-0.233-0.266-0.331-0.41c-0.035-0.053-0.109-0.078-0.163-0.116c-0.112-0.079-0.249,0.04-0.306,0.136
		c-0.042,0.067-0.084,0.148-0.153,0.177c-0.126,0.05-0.274,0.059-0.38,0.159c-0.031-0.447-0.153-0.828-0.339-1.18
		c-0.104-0.197-0.092-0.428-0.101-0.644c-0.005-0.126-0.047-0.245-0.09-0.361c-0.013-0.036-0.035-0.075-0.063-0.101
		c-0.033-0.028-0.077-0.057-0.116-0.06c-0.164,0.157-0.19,0.29-0.262,0.401c-0.186-0.246-0.151-0.522-0.224-0.773
		c-0.186-0.635-0.231-1.312-0.494-1.921c-0.077-0.185-0.144-0.254-0.192-0.332c-0.078-0.122-0.239-0.125-0.373-0.106
		c-0.722,0.098-1.457,0.014-2.181,0.045c-0.176,0.008-0.354-0.014-0.527,0.025c-0.056,0.013-0.125-0.01-0.182-0.028
		c-0.068-0.022-0.156-0.044-0.192-0.094c-0.034-0.044-0.036-0.161-0.009-0.181c0.155-0.111,0.367-0.143,0.633-0.115
		c0.241,0.023,0.437,0.023,0.583-0.075c-0.133-0.165-0.299-0.167-0.494-0.151c-0.219,0.02-0.389,0.039-0.525-0.031
		c-0.201-0.104-0.402-0.211-0.615-0.293c-0.331-0.031-0.666-0.015-0.998,0.01c-0.081,0.008-0.173-0.021-0.24-0.062
		c-0.056-0.035-0.059-0.143-0.01-0.196c0.058-0.065,0.163-0.134,0.159-0.194c-0.013-0.189-0.074-0.374-0.008-0.572
		c-0.041-0.02-0.08-0.049-0.123-0.059c-0.273-0.067-0.554-0.021-0.829-0.035c-0.051-0.002-0.101-0.045-0.147-0.074
		c-0.032-0.213,0.131-0.27,0.272-0.274c0.057-0.002,0.116-0.036,0.163-0.067c0.063-0.041,0.087-0.121,0.132-0.181
		c0.064-0.087,0.181-0.121,0.287-0.11c0.106,0.012,0.229-0.008,0.313-0.067c0.063-0.047,0.097-0.133,0.145-0.198
		c-0.025-0.037-0.04-0.091-0.075-0.111c-0.119-0.076-0.262-0.068-0.395-0.058l-0.56,0.048c-0.076,0.006-0.161-0.032-0.228-0.072
		c-0.08-0.048-0.088-0.184-0.017-0.244c0.089-0.078,0.212-0.068,0.319-0.064c0.203,0.008,0.405,0.039,0.608,0.02
		c0.049-0.004,0.109-0.021,0.145-0.053c0.028-0.025,0.031-0.08,0.045-0.12c-0.228-0.118-0.342-0.327-0.429-0.556
		c-0.013-0.144-0.035-0.281-0.111-0.407c-0.023-0.143,0.086-0.318,0.282-0.345c0.217-0.027,0.442,0.045,0.66,0.009
		c0.117-0.03,0.157-0.065,0.159-0.093c0.007-0.182-0.048-0.363,0.007-0.543c-0.239-0.178-0.456-0.141-0.659-0.18
		c-0.06-0.01-0.116-0.039-0.174-0.061c-0.002-0.059-0.031-0.13-0.008-0.177c0.119-0.239,0.388-0.367,0.735-0.303
		c0.107,0.021,0.228,0.046,0.333,0.001c0.042-0.019,0.095-0.025,0.127-0.054c-0.083-0.17-0.24-0.14-0.381-0.147
		c-0.165-0.008-0.331,0.053-0.494,0.024c-0.059-0.011-0.125-0.007-0.177-0.031c-0.059-0.026-0.114-0.069-0.156-0.116
		c0.048-0.174,0.173-0.198,0.29-0.195l2.614,0.072c0.066,0.002,0.133-0.011,0.199-0.015c0.158-0.011,0.27-0.178,0.275-0.329
		c0.003-0.089-0.004-0.19,0.049-0.279c0.145,0.201,0.158,0.355,0.25,0.455c0.099,0.106,0.275,0.111,0.391,0.039
		c0.085-0.053,0.138-0.165,0.123-0.266c-0.053-0.379-0.207-0.743-0.214-1.131c-0.004-0.228-0.017-0.426,0.056-0.592
		c0.024-0.055,0.099-0.087,0.148-0.13c0.092-0.082,0.107-0.214,0.076-0.334c-0.082-0.319-0.114-0.642-0.064-0.968
		c0.013-0.087-0.024-0.183-0.023-0.273C-67.471-128.752-67.452-128.805-67.439-128.858 M-60.704-114.89
		c-0.057,0.137,0.012,0.331,0.187,0.443c0.079,0.052,0.139-0.06,0.163-0.118c0.055-0.137-0.011-0.305-0.225-0.378
		C-60.625-114.959-60.684-114.938-60.704-114.89 M-55.312-122.773c0,0.061-0.022,0.117,0.048,0.113
		c0.098-0.086,0.074-0.128,0.039-0.138C-55.229-122.779-55.329-122.84-55.312-122.773 M-67.233-128.174
		c0.013,0.062-0.039,0.146,0.043,0.129c0.052-0.011,0.08-0.069,0.063-0.112c-0.01-0.022,0.041-0.109-0.041-0.088L-67.233-128.174z
		 M-56.323-120.682c0.045,0.127,0.099,0.105,0.122,0.072C-56.171-120.653-56.201-120.738-56.323-120.682 M-67.193-127.897
		c0.034,0.096,0.076,0.197,0.056,0.297c0.064-0.104,0.061-0.249,0.04-0.396C-67.143-128-67.211-127.948-67.193-127.897
		 M-71.215-124.058c0.039-0.007,0.078-0.027,0.111-0.019c0.1,0.026,0.206,0.01,0.304,0.022c0.014,0.001,0.125-0.063,0.068-0.061
		c-0.189,0.008-0.386-0.067-0.575-0.027L-71.215-124.058z M-66.014-128.159c-0.011,0.032,0.004,0.075-0.007,0.107
		c-0.017,0.048-0.039,0.103,0.071,0.182c0.072-0.091,0.046-0.205,0.08-0.298C-65.854-128.214-65.919-128.253-66.014-128.159"/>
	<path fill="#ED282A" d="M-56.564-93.807c-0.047,0.057-0.043,0.146-0.013,0.207c0.054,0.109,0.218,0.111,0.293,0.022
		c0.047-0.057,0.066-0.148,0.022-0.212C-56.325-93.879-56.481-93.901-56.564-93.807 M-66.959-114.87
		c0.009-0.032,0.027-0.063,0-0.192C-66.968-115.031-66.986-114.998-66.959-114.87 M-55.328-118.511
		c0.03-0.036,0.017-0.091,0.003-0.132c-0.025-0.08-0.179-0.078-0.222-0.017l-0.019,0.034c-0.035,0.066,0.01,0.123,0.063,0.145
		C-55.446-118.457-55.367-118.461-55.328-118.511 M-53.871-117.979c0.034-0.016,0.073-0.108,0.058-0.149
		c-0.049-0.134-0.191-0.212-0.421-0.148l-0.027,0.089c-0.024,0.057-0.037,0.133-0.08,0.17c-0.036,0.029-0.108,0.039-0.157,0.03
		c-0.155-0.03-0.308-0.021-0.463-0.017c-0.1,0.002-0.15-0.125-0.337-0.152c-0.126,0.051-0.25,0.17-0.257,0.315
		c-0.002,0.038,0.069,0.078,0.103,0.117c0.058-0.032,0.113-0.084,0.176-0.101c0.062-0.014,0.137-0.008,0.198,0.012
		c0.081,0.023,0.151,0.114,0.229,0.115c0.199,0.004,0.385,0.099,0.583,0.109c0.035,0.003,0.096-0.024,0.108-0.055
		C-54.101-117.781-54.013-117.914-53.871-117.979 M-54.686-117.389c-0.05,0.005-0.071,0.061-0.071,0.098l0.004,0.04
		c0.113,0.276,0.244,0.169,0.317,0.192c0.018-0.098-0.055-0.171-0.098-0.246C-54.568-117.366-54.613-117.399-54.686-117.389
		 M-52.904-117.806c0.027-0.044,0.058-0.101,0.054-0.149c-0.011-0.113,0.007-0.236-0.033-0.334
		c-0.016-0.039-0.092-0.052-0.138-0.078c-0.034,0.049-0.11,0.102-0.105,0.143c0.019,0.139-0.031,0.289,0.046,0.42
		C-53.05-117.754-52.94-117.747-52.904-117.806 M-52.448-117.234c0.074-0.01,0.076-0.104,0.047-0.15
		c-0.021-0.035-0.08-0.04-0.104-0.004C-52.522-117.363-52.536-117.336-52.448-117.234 M-51.831-117.297
		c0.129-0.121,0.063-0.359-0.051-0.458c-0.016-0.015-0.089-0.003-0.106,0.021c-0.07,0.106-0.079,0.238-0.065,0.362l0.082,0.085
		C-51.933-117.271-51.873-117.26-51.831-117.297 M-51.27-115.742c-0.068-0.004-0.159,0.025-0.2,0.092
		c-0.101,0.163-0.106,0.289-0.068,0.396c0.021,0.059,0.147,0.031,0.208-0.012C-51.208-115.351-51.132-115.516-51.27-115.742
		 M-51.045-116.146c-0.019-0.093-0.117-0.131-0.197-0.12c-0.073,0.01-0.119,0.081-0.146,0.139l-0.009,0.04
		c-0.006,0.087,0.112,0.204,0.213,0.165C-51.097-115.957-51.024-116.043-51.045-116.146 M-50.522-115.454
		c0.05-0.175,0.099-0.297,0.061-0.405c-0.032-0.09-0.128-0.123-0.212-0.143c-0.097-0.021-0.248,0.048-0.225,0.15
		c0.036,0.158,0.125,0.314,0.248,0.423C-50.63-115.412-50.565-115.446-50.522-115.454 M-57.908-103.822
		c0.048-0.021,0.079-0.068,0.105-0.114c0.019-0.03,0.037-0.059,0.058-0.106C-57.796-104.011-57.837-103.963-57.908-103.822
		 M-70.905-98.85c-0.023-0.039-0.057-0.068-0.088-0.102c-0.031-0.027-0.067-0.055-0.122-0.089
		C-71.09-98.982-71.029-98.953-70.905-98.85 M-66.57-108.602c0.01-0.09,0.02-0.176,0.032-0.274c0.002-0.015,0.003-0.027,0.004-0.043
		C-66.547-108.805-66.558-108.707-66.57-108.602 M-66.595-108.382c0,0.004,0,0.009,0,0.013c0.009-0.072,0.018-0.156,0.026-0.232
		C-66.578-108.531-66.586-108.449-66.595-108.382 M-49.378-104.453v0.137l0.027,0.137c-0.128,0.143-0.183,0.198-0.218,0.264
		c-0.019,0.035-0.019,0.08-0.029,0.119l-0.043,0.173l-0.038,0.183c-0.096,0.08-0.138,0.216-0.246,0.286
		c-0.082-0.08-0.094-0.133-0.08-0.178l0.107-0.354c0.03-0.041,0.036-0.091,0.051-0.137c0.052-0.084,0.057-0.184,0.086-0.26
		c0.036-0.096,0.09-0.186,0.109-0.288l0.097-0.266c0.062-0.087,0.099-0.099,0.131-0.117
		C-49.358-104.666-49.383-104.561-49.378-104.453 M-50.353-101.557c-0.018,0.057-0.055,0.105-0.065,0.192l-0.119,0.271l0.119-0.297
		C-50.408-101.451-50.37-101.5-50.353-101.557 M-50.51-102.294c-0.016,0.065-0.047,0.128-0.071,0.192
		c-0.027,0.03-0.034,0.078-0.027,0.191c-0.152,0.09-0.279,0.162-0.371,0.29c-0.001-0.036-0.018-0.077-0.005-0.108
		c0.028-0.072,0.087-0.133,0.103-0.209c0.048-0.058,0.028-0.138,0.057-0.199c0.017-0.035,0.038-0.066,0.052-0.102
		C-50.68-102.267-50.622-102.352-50.51-102.294 M-50.874-100.364l-0.227,0.34c-0.045,0.032-0.084,0.071-0.121,0.112l-0.273-0.002
		l0.273-0.003c0.037-0.046,0.076-0.091,0.121-0.134L-50.874-100.364z M-51.662-100.105c0.018,0.08,0.013,0.143-0.013,0.19
		c-0.005,0.006-0.01,0.013-0.015,0.02c-0.289,0.319-0.482,0.722-0.794,1.017l-1.022,0.986c-0.043,0.009-0.065,0.027-0.111,0.068
		c-0.03,0.018-0.069,0.031-0.108,0.069c-0.108,0.035-0.224,0.037-0.297,0.159c-0.06,0.104-0.118,0.214-0.276,0.348
		c-0.03,0.03-0.068,0.053-0.163,0.121h-0.159c-0.051-0.029-0.035-0.098,0.047-0.217c0.097-0.076,0.14-0.188,0.239-0.239
		c0.1-0.054,0.216-0.088,0.302-0.158c0.059-0.048,0.083-0.133,0.156-0.231c0.049-0.068,0.106-0.135,0.205-0.247
		c0.126-0.108,0.247-0.224,0.392-0.402c0.082-0.091,0.177-0.172,0.238-0.28l0.122-0.139c0.049-0.053,0.114-0.096,0.151-0.162
		l0.816-0.709l0.143-0.123C-51.77-100.069-51.711-100.082-51.662-100.105 M-52.674-115.55c-0.055-0.012-0.069-0.067-0.088-0.106
		l0.049-0.077C-52.66-115.727-52.619-115.668-52.674-115.55 M-53.37-115.91c0.003,0.074-0.089,0.111-0.206,0.076L-53.37-115.91z
		 M-57.922-103.139c-0.044,0.037-0.104,0.065-0.214,0.152c-0.091,0.068-0.166,0.16-0.275,0.203c0.108-0.043,0.186-0.137,0.337-0.276
		C-58.02-103.08-57.965-103.104-57.922-103.139 M-58.127-103.333c-0.015,0.011-0.019,0.038-0.11,0.083L-58.127-103.333z
		 M-61.482-101.328c-0.057,0.011-0.115,0.013-0.2,0.102l-0.226-0.043l0.253-0.039C-61.597-101.315-61.539-101.317-61.482-101.328
		 M-66.772-108.481l-0.023-0.11l0.023,0.105C-66.772-108.484-66.772-108.482-66.772-108.481l0.008,0.04
		c0.03,0.167,0.04,0.338,0.076,0.508c0.023-0.084,0.041-0.169,0.056-0.255c0.011-0.065,0.028-0.126,0.036-0.193
		c0.012-0.161,0.017-0.314,0.022-0.464l0.039-0.073c0.001-0.001,0.001-0.001,0.001-0.001c0.001-0.003,0.001-0.006,0.001-0.009
		c0.039-0.071,0.099-0.131,0.131-0.208c-0.027,0.063-0.072,0.115-0.133,0.217c-0.002,0.016-0.003,0.029-0.005,0.044
		c-0.045,0.4-0.063,0.734-0.12,1.06c0.031-0.203,0.049-0.384,0.062-0.553c-0.008,0.062-0.026,0.121-0.036,0.181
		c-0.016,0.093-0.026,0.187-0.052,0.276c-0.002-0.008-0.002-0.015-0.004-0.021c-0.01,0.038-0.013,0.078-0.026,0.117
		C-66.726-108.023-66.728-108.234-66.772-108.481 M-66.632-113.668c-0.042,0.04-0.07,0.108-0.155,0.209l0.047-0.072
		C-66.702-113.568-66.674-113.629-66.632-113.668 M-66.917-113.366c-0.09-0.126-0.111-0.339-0.004-0.554
		C-67.025-113.707-67-113.493-66.917-113.366 M-67.799-114.86c-0.025,0.007-0.046,0.026-0.069,0.042
		c-0.025,0.021-0.053,0.053-0.089,0.105c-0.049,0.045-0.11,0.104-0.17,0.108c0.061-0.005,0.121-0.063,0.214-0.188
		c0.013-0.011,0.03-0.017,0.045-0.026C-67.842-114.842-67.82-114.855-67.799-114.86 M-65.334-95.186
		c0.023-0.066,0.053-0.135,0.097-0.191c0.04-0.006,0.079-0.021,0.118-0.021c0.043,0,0.086,0.016,0.183,0.092
		c0.035,0.045,0.043,0.123,0,0.162c-0.041,0.037-0.092,0.062-0.137,0.098H-65.1l-0.146,0.023
		C-65.319-95.011-65.353-95.127-65.334-95.186 M-62.678-94.775c0.115,0.008,0.237,0.031,0.367,0.056l0.328,0.027h-0.054l-0.33-0.027
		C-62.466-94.743-62.573-94.767-62.678-94.775 M-60.43-95.451c0.026-0.039,0.045-0.105,0.079-0.113
		c0.202-0.045,0.405-0.066,0.61-0.057c0.01,0.064-0.035,0.127-0.087,0.156c-0.135,0.073-0.303,0.1-0.457,0.078
		C-60.335-95.394-60.381-95.43-60.43-95.451 M-59.618-95.729c0.08-0.078,0.193-0.054,0.287-0.059
		c0.008,0.045-0.007,0.094-0.052,0.113c-0.067,0.033-0.143,0.016-0.209,0.03C-59.668-95.627-59.622-95.727-59.618-95.729
		 M-52.593-98.222c0.275-0.258,0.519-0.554,0.753-0.872c0.007-0.022,0.026-0.036,0.038-0.055c0.025-0.042,0.054-0.077,0.08-0.112
		c-0.027,0.037-0.053,0.075-0.08,0.112c-0.015,0.023-0.029,0.047-0.038,0.082C-52.074-98.771-52.316-98.48-52.593-98.222
		 M-55.831-108.883l-0.096-0.027c-0.058-0.118-0.037-0.25-0.041-0.373C-55.963-109.16-55.981-109.026-55.831-108.883
		 M-65.823-111.356c0.04-0.044,0.046-0.118,0.066-0.206l0.038-0.137l-0.038,0.164C-65.776-111.475-65.783-111.4-65.823-111.356
		 M-65.704-111.752l0.016-0.057c0.033-0.078,0.087-0.18,0.183-0.174C-65.597-111.986-65.653-111.889-65.704-111.752
		 M-72.387-101.397c-0.064-0.155-0.191-0.269-0.341-0.422c-0.008-0.048-0.001-0.097-0.001-0.146c0.014-0.03,0.02-0.065,0.125-0.156
		c0.029,0.046,0.056,0.092,0.09,0.133c0.023,0.03,0.054,0.055,0.085,0.104c-0.003,0.019-0.016,0.04,0.042,0.151
		C-72.319-101.613-72.281-101.492-72.387-101.397 M-72.562-104.998c0,0.523,0.096,1.055-0.015,1.664
		c-0.02,0.031-0.062,0.051-0.11,0.057l-0.113-0.162c-0.081-0.117-0.057-0.264-0.062-0.4c-0.035-0.93,0.034-1.859,0.136-2.783
		c0.047-0.434,0.054-0.87,0.196-1.303C-72.467-106.95-72.562-105.973-72.562-104.998 M-72.64-110.107l-0.034,0.185
		c-0.012,0.085-0.022,0.171-0.053,0.265c-0.002,0.009-0.001,0.02-0.004,0.026l-0.013,0.031l-0.031,0.08
		c-0.012,0.034-0.016,0.061-0.025,0.093c-0.022,0.086-0.043,0.172-0.064,0.271l-0.028,0.191l-0.027,0.137l0.027-0.191l0.028-0.164
		c0.019-0.075,0.041-0.16,0.064-0.244c0.007-0.023,0.011-0.053,0.019-0.076l0.006-0.017c0.001-0.003,0.001-0.005,0.003-0.009
		l0.028-0.071l0.006-0.013c0.006-0.016,0.006-0.029,0.011-0.045c0.03-0.086,0.041-0.18,0.053-0.291L-72.64-110.107z
		 M-72.947-108.582l0.027-0.137l-0.027,0.219l-0.028,0.218l-0.027,0.22l-0.027,0.218l-0.021,0.22l-0.034,0.246l-0.027,0.328
		l-0.027,0.355l0.027-0.41l0.027-0.301l0.034-0.219l0.021-0.246l0.027-0.274l0.027-0.218L-72.947-108.582z M-48.83-106.268
		c-0.001-0.354-0.042-0.709-0.111-1.085l-0.026-0.163l-0.028-0.191l-0.02-0.157l-0.034-0.171l-0.028-0.164l-0.026-0.137
		l-0.055-0.219l-0.038-0.157c-0.01-0.041-0.017-0.082-0.044-0.116c-0.007-0.041-0.02-0.084-0.054-0.109l-0.025-0.179
		c-0.073-0.192-0.086-0.387-0.157-0.566c-0.083-0.212-0.093-0.381-0.202-0.485c-0.023-0.127-0.095-0.235-0.146-0.351l-0.127-0.278
		c0-0.04-0.017-0.075-0.082-0.164c0.009-0.131-0.04-0.254-0.091-0.369l-0.155-0.342l-0.031-0.109
		c-0.012-0.043-0.031-0.093-0.078-0.109c-0.03-0.117-0.105-0.217-0.146-0.328c-0.046-0.126-0.116-0.24-0.216-0.403
		c-0.044-0.062-0.08-0.128-0.178-0.2c-0.014-0.025-0.03-0.051-0.121-0.164c-0.007-0.031-0.089-0.064-0.077-0.162
		c-0.018-0.047-0.065-0.072-0.165-0.164c-0.016-0.037-0.037-0.074-0.06-0.11l-0.172-0.251c-0.052-0.076-0.088-0.158-0.149-0.24
		l-0.11-0.137c-0.008-0.05-0.032-0.092-0.055-0.174c0-0.06,0.008-0.111-0.033-0.156c-0.038-0.042-0.062-0.096-0.103-0.162
		c-0.046-0.149-0.049-0.338,0.104-0.431c0.083-0.05,0.106-0.175,0.045-0.26c-0.102-0.142-0.117-0.316-0.005-0.465
		c0.067-0.093,0.106-0.216,0.04-0.315c-0.095-0.144-0.274-0.177-0.397-0.281c-0.058-0.049-0.067-0.143-0.138-0.178
		c-0.077-0.038-0.166-0.056-0.25-0.081c-0.145-0.041-0.306-0.058-0.434,0.036c-0.043,0.032-0.11,0.033-0.165,0.049l-0.094-0.123
		c0.021-0.037,0.031-0.091,0.063-0.109c0.062-0.037,0.146-0.038,0.219-0.059c0-0.109-0.016-0.221-0.044-0.329
		c-0.036-0.134-0.097-0.271-0.239-0.321c-0.041-0.014-0.089-0.004-0.134-0.004c-0.117,0.001-0.255-0.004-0.333,0.096
		c-0.062,0.078-0.101,0.206-0.008,0.279c0.045,0.035,0.102,0.062,0.133,0.105c0.032,0.045,0.065,0.109,0.06,0.161
		c-0.006,0.054-0.052,0.112-0.094,0.153c-0.144,0.137-0.178,0.329-0.158,0.519c-0.033-0.001-0.07,0.011-0.179-0.079
		c-0.042-0.143-0.105-0.279-0.196-0.396c-0.059-0.076-0.191-0.064-0.292-0.078c-0.143-0.021-0.298,0.029-0.388,0.154
		c-0.026,0.038-0.017,0.1-0.026,0.15c0.099,0.072,0.167,0.154,0.232,0.248l0.027,0.219c-0.027,0.027-0.048,0.081-0.103,0.068
		c-0.062-0.016-0.095-0.074-0.143-0.105l-0.109-0.072c-0.011-0.029-0.022-0.057-0.083-0.137c-0.017-0.035-0.028-0.075-0.142-0.18
		c-0.049-0.023-0.121-0.016-0.159-0.049c-0.058-0.049-0.097-0.126-0.13-0.197c-0.03-0.062-0.033-0.141-0.068-0.2
		c-0.036-0.065-0.133-0.065-0.245,0.017c-0.013,0.089-0.007,0.186,0.023,0.268c0.038,0.107,0.114,0.214,0.087,0.34
		c-0.018,0.085-0.104,0.202-0.202,0.156c-0.077-0.035-0.145-0.09-0.213-0.141c-0.036-0.027-0.066-0.063-0.101-0.123
		c-0.106-0.139-0.21-0.275-0.354-0.377c-0.076-0.054-0.154-0.088-0.246-0.081c-0.152,0.011-0.162,0.194-0.137,0.307
		c0.025,0.119,0.165,0.202,0.088,0.425c-0.122,0.178-0.087,0.438,0.102,0.535c0.188,0.209,0.345,0.442,0.574,0.641
		c0.022,0.055,0.051,0.109,0.058,0.168c0.007,0.066-0.049,0.143-0.112,0.158c-0.053,0.012-0.109,0.002-0.272-0.066
		c-0.063-0.05-0.113-0.113-0.172-0.168l-0.138-0.096c-0.057-0.031-0.13-0.039-0.188-0.012c-0.047,0.021-0.091,0.056-0.122,0.097
		c-0.023,0.028-0.03,0.072-0.038,0.11c0,0.058-0.007,0.117,0.027,0.219l0.026,0.137c0.007,0.068,0.007,0.137,0.017,0.204
		c0.006,0.043,0.022,0.084,0.039,0.124c0.01,0.061,0.048,0.108,0.065,0.165c0.013,0.042,0.026,0.09,0.071,0.108
		c0.006,0.043,0.037,0.072,0.055,0.109c0.009,0.029,0.032,0.051,0.137,0.137c0.064,0.083,0.102,0.184,0.151,0.273
		c0.041,0.072,0.089,0.143,0.123,0.219c0.004,0.087-0.021,0.176-0.074,0.244c-0.032,0.043-0.046,0.116-0.113,0.123l-0.126,0.015
		l-0.122-0.069c-0.04-0.028-0.064-0.076-0.111-0.094c-0.001-0.07-0.069-0.105-0.104-0.155c-0.034-0.05-0.088-0.087-0.115-0.146
		c-0.03-0.047-0.07-0.085-0.111-0.123c-0.053-0.049-0.097-0.113-0.163-0.15c0.018,0.039,0.038,0.079,0.066,0.111
		c-0.028-0.032-0.048-0.072-0.148-0.139c-0.04-0.01-0.082-0.028-0.122-0.028c-0.037,0.001-0.08,0.028-0.124,0.11
		c0.035-0.016,0.067-0.039,0.103-0.053c-0.036,0.014-0.068,0.037-0.103,0.081c-0.01,0.023-0.022,0.048,0.034,0.141
		c0.001,0.015,0,0.03,0.044,0.111c0.06,0.072,0.116,0.151,0.184,0.216c0.043,0.043,0.097,0.072,0.148,0.105
		c0.013,0.046,0.023,0.093,0.041,0.137c0.02,0.047,0.046,0.092,0.069,0.137c0.019,0.051,0.054,0.091,0.082,0.137
		c0.023,0.038,0.033,0.092,0.082,0.136l0.033,0.22c-0.038-0.014-0.098-0.014-0.114-0.039c-0.086-0.131-0.206-0.229-0.348-0.278
		l-0.143-0.053c-0.034,0.061-0.085,0.118-0.104,0.183c-0.01,0.03,0.013,0.07,0.02,0.105c0.004-0.02,0.009-0.039,0.012-0.06
		c0.001-0.034,0.006-0.058,0.015-0.079c-0.01,0.024-0.011,0.053-0.015,0.079c-0.002,0.034,0,0.078,0.002,0.142l0.377,0.383
		l0.319,0.355c0.034,0.085,0.075,0.166,0.114,0.248c0.095,0.197,0.245,0.363,0.377,0.537c0.054,0.07,0.073,0.17,0.112,0.255
		c0.021,0.034,0.039,0.072,0.14,0.217l0.035,0.155c0.01,0.042,0.017,0.084,0.044,0.119c0.008,0.049,0.009,0.1,0.092,0.242
		c0.046,0.068,0.06,0.15,0.099,0.25l0.027,0.164l0.045,0.141c0.026,0.082,0.092,0.141,0.134,0.215
		c0.045,0.079,0.053,0.18,0.122,0.246c0.007,0.039,0.02,0.076,0.034,0.112c0.038,0.099,0.084,0.193,0.114,0.294
		c0.051,0.18,0.051,0.37,0.099,0.55l0.055,0.302l0.027,0.191v0.164l-0.027,0.109c-0.054,0.053-0.072,0.129-0.109,0.219
		c-0.043,0.043-0.089,0.084-0.128,0.132l-0.285,0.345c-0.052,0.062-0.093,0.135-0.038,0.127c-0.023,0.033-0.061,0.06-0.096,0.106
		l-0.488,0.579c-0.15,0.184-0.337,0.334-0.506,0.498l-0.121,0.082c-0.083,0.072-0.161,0.155-0.252,0.215
		c-0.061,0.041-0.1,0.101-0.136,0.158c-0.062,0-0.087,0.062-0.173,0.165c-0.004,0.01-0.017,0.015-0.023,0.023
		c-0.033,0.058-0.066,0.099-0.105,0.114c-0.027,0.012-0.053,0.022-0.166,0.125c0.018-0.024,0.035-0.055,0.056-0.1
		c-0.044,0.017-0.074,0.053-0.191,0.191l-0.164,0.07c-0.062,0.051-0.119,0.109-0.165,0.176l-0.191,0.082
		c-0.066,0.022-0.113,0.074-0.245,0.191l-0.104,0.018c-0.048,0.009-0.076,0.045-0.129,0.115c-0.036,0.035-0.081,0.06-0.124,0.086
		c0.043-0.026,0.087-0.051,0.138-0.137c-0.056,0.029-0.117,0.051-0.165,0.092c-0.032,0.028-0.084,0.031-0.109,0.072
		c-0.045,0.006-0.093,0.007-0.137,0.021c-0.047,0.013-0.091,0.04-0.15,0.111c-0.027,0.042-0.085,0.046-0.123,0.076
		c0.037-0.03,0.095-0.034,0.137-0.126c-0.066,0.008-0.112,0.059-0.164,0.094c-0.036,0.023-0.084,0.029-0.11,0.07
		c-0.027,0.004-0.057,0.004-0.179,0.105c-0.035,0.035-0.082,0.058-0.122,0.085c0.041-0.027,0.087-0.05,0.136-0.136
		c-0.066,0.033-0.137,0.062-0.192,0.118c-0.03,0.031-0.082,0.033-0.108,0.073l-0.182,0.039c-0.049,0.009-0.104,0.006-0.146,0.043
		c-0.063,0.008-0.111,0.049-0.165,0.08c-0.053,0.029-0.116,0.042-0.164,0.084l-0.104,0.018c-0.041,0.006-0.08,0.013-0.142,0.092
		c-0.04,0.035-0.09,0.061-0.136,0.092c0.046-0.031,0.096-0.057,0.164-0.147c-0.038,0.015-0.075,0.033-0.11,0.054l-0.254,0.143
		l-0.198,0.034c-0.05,0.009-0.107,0.008-0.208,0.116c-0.066,0.041-0.141,0.067-0.211,0.102c0.07-0.034,0.145-0.061,0.271-0.175
		c-0.094,0.02-0.182,0.062-0.27,0.099c-0.083,0.032-0.163,0.073-0.158,0.118c-0.043,0.001-0.091-0.007-0.147-0.024l-0.164,0.027
		l-0.328,0.055c0.105,0.016,0.213,0.024,0.32,0.024c-0.12,0.001-0.25-0.009-0.403-0.024l0.11-0.055l-0.11-0.027
		c-0.137-0.014-0.27-0.063-0.396-0.117c-0.139-0.057-0.276-0.125-0.424-0.158c-0.039-0.037-0.089-0.057-0.137-0.08
		c-0.085-0.039-0.169-0.084-0.259-0.111c-0.057-0.017-0.119-0.018-0.178-0.026l-0.136-0.054c-0.058-0.043-0.132-0.045-0.194-0.08
		c-0.075-0.041-0.161-0.062-0.244-0.084c-0.06-0.062-0.153-0.062-0.219-0.11c-0.142-0.062-0.296-0.097-0.431-0.176l-0.362-0.206
		c-0.023-0.055-0.083-0.071-0.123-0.109l-0.259-0.273l-0.095-0.166l-0.069-0.162l-0.026-0.301v-1.176v-0.465
		c0.005-0.477,0.079-0.949,0.117-1.422c0.035-0.439,0.151-0.871,0.156-1.34c0.041-0.188,0.059-0.381,0.118-0.566
		c0.041-0.127,0.094-0.254,0.101-0.418c0.054-0.129,0.073-0.267,0.116-0.398c0.037-0.115,0.076-0.231,0.13-0.341
		c0.041-0.04,0.033-0.101,0.054-0.15c0.025-0.065,0.047-0.132,0.055-0.204c0.038-0.053,0.081-0.102,0.107-0.158
		c0.029-0.062,0.039-0.132,0.057-0.197c0.049-0.054,0.033-0.129,0.052-0.191c0.026-0.081,0.054-0.16,0.057-0.246
		c0.04-0.012,0.05-0.054,0.109-0.164l0.061-0.136c0.022-0.053,0.046-0.106,0.049-0.165c0.101-0.134,0.159-0.305,0.125-0.48
		c-0.011-0.053-0.062-0.125-0.113-0.144c-0.104-0.04-0.265,0.027-0.285,0.159c-0.047,0.048-0.036,0.114-0.051,0.173l-0.059,0.237
		c-0.041,0.025-0.044,0.076-0.072,0.109c-0.041,0.049-0.062,0.109-0.092,0.164c-0.031,0.092-0.037,0.189-0.058,0.282l-0.052,0.21
		c-0.037,0.025-0.047,0.07-0.065,0.108c-0.016,0.036-0.009,0.081-0.044,0.11c-0.017,0.04-0.028,0.082-0.04,0.125
		c-0.019,0.072-0.041,0.145-0.069,0.312c-0.071,0.045-0.133,0.129-0.305,0.055c-0.042-0.078,0.017-0.165,0.032-0.246
		c0.051-0.099,0.057-0.217,0.077-0.324c0.006-0.037,0.009-0.075,0.019-0.113c0.011-0.037,0.029-0.072,0.042-0.109
		c0.038-0.013,0.054-0.049,0.082-0.137c0.061-0.075,0.084-0.17,0.11-0.26l0.082-0.287c0.031-0.025,0.048-0.061,0.081-0.191
		l0.042-0.102l0.096-0.309c0.041-0.036,0.055-0.092,0.081-0.164c0.049-0.018,0.061-0.07,0.083-0.109
		c0.022-0.043,0.047-0.088,0.054-0.137c0.026-0.034,0.033-0.075,0.045-0.116c0.015-0.051,0.008-0.104,0.01-0.157
		c0.009-0.045,0.027-0.092,0.027-0.137s-0.018-0.091-0.027-0.137c0-0.057,0.007-0.115-0.027-0.219
		c-0.021-0.044-0.039-0.096-0.083-0.121c-0.046-0.024-0.091-0.063-0.19-0.043h-0.118c-0.11-0.055-0.137-0.185-0.294-0.316
		c-0.11-0.02-0.223,0.031-0.309,0.09c-0.083,0.057-0.103,0.168-0.236,0.235c-0.015-0.144,0.015-0.288,0.088-0.411
		c0.086-0.143,0.03-0.307-0.041-0.432c-0.063-0.111-0.084-0.24-0.075-0.369l-0.026-0.232c0-0.031,0.018-0.064,0.026-0.15
		c-0.025-0.075-0.042-0.16-0.092-0.219c-0.02-0.023-0.071-0.02-0.107-0.029c-0.108-0.031-0.2,0.082-0.246,0.18
		c-0.05,0.106-0.138,0.198-0.236,0.242c-0.089,0.04-0.248,0.002-0.317,0.119c-0.03,0.053-0.07,0.109-0.119,0.133
		c-0.054,0.026-0.124-0.037-0.14-0.098v-0.109l0.081-0.191c0.024-0.031,0.033-0.066,0.038-0.105l0.018-0.168
		c0.035-0.117,0.032-0.246-0.01-0.357c-0.026-0.068-0.09-0.123-0.135-0.185c-0.082,0.013-0.174,0.003-0.244,0.04
		c-0.03,0.016-0.036,0.077-0.048,0.119l-0.108,0.354c-0.028,0.096-0.074,0.184-0.11,0.275l-0.102,0.069
		c-0.094,0.062-0.183,0.154-0.309,0.149v-0.1c0-0.105,0.059-0.188,0.082-0.283c0.015-0.049,0.021-0.099,0.03-0.148
		c0.011-0.071-0.001-0.148-0.037-0.211l-0.075-0.133c-0.051-0.08-0.099-0.164-0.228-0.263c-0.096-0.012-0.169,0.071-0.228,0.136
		c-0.057,0.062-0.112,0.115-0.132,0.203c-0.019,0.088-0.128,0.14-0.204,0.105l-0.214-0.082c-0.143,0.039-0.26-0.078-0.334-0.209
		c-0.006-0.147,0.014-0.313-0.066-0.448c-0.013-0.022-0.076-0.032-0.106-0.022c-0.172,0.057-0.327,0.163-0.427,0.316
		c-0.04,0.061-0.119,0.095-0.178,0.144c-0.021,0.017-0.045,0.033-0.06,0.12c0.103,0.189,0.107,0.387,0.027,0.524
		c-0.072,0.122-0.159,0.235-0.163,0.386c-0.001,0.071-0.051,0.142-0.077,0.212l-0.112-0.001c-0.052-0.099-0.06-0.223,0-0.316
		c0.057-0.092-0.006-0.188-0.063-0.242c-0.095-0.086-0.231-0.078-0.344-0.066c-0.075,0.007-0.155,0.002-0.226,0.023
		c-0.07,0.02-0.135,0.062-0.262,0.179c-0.01,0.032,0.005,0.072,0.007,0.109c0.09,0.019,0.193,0.052,0.239,0.142l0.09,0.172
		l0.026,0.273c-0.066,0.09-0.16,0.152-0.26,0.197c-0.111,0.05-0.2,0.156-0.22,0.266c-0.011,0.057,0.044,0.124,0.064,0.187
		l0.065,0.233c-0.079,0.079-0.17,0.146-0.234,0.235c-0.036,0.048-0.057,0.118-0.05,0.174c0.012,0.089,0.135,0.113,0.198,0.083
		c0.094-0.043,0.074-0.19,0.15-0.257c0.057-0.052,0.153-0.065,0.233-0.084c0.037-0.009,0.083-0.008,0.114,0.009
		c0.127,0.069,0.135,0.215,0.087,0.327c-0.021,0.044-0.035,0.093-0.112,0.185c-0.142,0.006-0.283,0.071-0.363,0.193
		c-0.045,0.068-0.128,0.11-0.195,0.164c-0.088,0.072-0.14,0.184-0.15,0.295c-0.008,0.1,0.085,0.188,0.178,0.214
		c0.084,0.025,0.171-0.04,0.222-0.206c0.046-0.035,0.083-0.08,0.133-0.105c0.045-0.023,0.107,0.008,0.195,0.133
		c-0.026,0.1-0.059,0.199-0.08,0.301c-0.015,0.072-0.02,0.146,0.026,0.219l-0.026,0.164c0.001,0.021-0.01,0.038-0.015,0.058
		c0.006,0.018-0.002,0.035-0.013,0.052c0.01-0.016,0.008-0.035,0.013-0.052c-0.007-0.019-0.027-0.038-0.072-0.058
		c-0.001,0.036-0.015,0.073-0.024,0.109l-0.119,0.269c-0.038,0.088-0.059,0.184-0.072,0.278c-0.046,0.094-0.096,0.185-0.127,0.283
		c-0.026,0.086-0.062,0.172-0.064,0.264c-0.009,0.032-0.022,0.064-0.028,0.192l-0.156,0.503c-0.039,0.127-0.07,0.262-0.062,0.426
		l-0.028,0.246l-0.027,0.164v0.109l-0.027,0.109v0.109l-0.028,0.191l-0.028,0.219l-0.027,0.164l-0.054,0.464l-0.028,0.302v0.164
		l-0.027,0.355v0.383l-0.027,0.465v1.312l-0.028,0.53c-0.006,0.105,0.001,0.212,0.083,0.318v0.137l-0.054,0.191l0.027,0.273
		c-0.006,0.073-0.027,0.146-0.021,0.217c0.01,0.111,0.025,0.219,0.021,0.33l0.014,0.188c0.009,0.145,0.114,0.26,0.178,0.387
		c0.005,0.034,0.008,0.069,0.054,0.191c0.031,0.079,0.074,0.152,0.112,0.228c0.087,0.165,0.178,0.328,0.291,0.481
		c0.142,0.195,0.272,0.404,0.444,0.575c0.015,0.03,0.028,0.06,0.11,0.165c0.022,0.061,0.057,0.116,0.191,0.136l0.083,0.112
		l0.016,0.021c-0.031-0.01-0.065-0.013-0.099-0.011c0.03,0.03,0.035,0.083,0.082,0.124l0.137,0.136c0,0.061,0.062,0.087,0.164,0.233
		c0.031,0.036,0.063,0.077,0.11,0.095l0.083,0.123c0.025,0.021,0.045,0.052,0.109,0.097l0.1,0.084
		c0.019,0.017,0.033,0.039,0.05,0.059c0.04,0.035,0.068,0.066,0.088,0.102c0.015,0.026,0.031,0.053,0.062,0.139
		c0.147,0.194,0.328,0.36,0.503,0.53c0.171,0.169,0.345,0.345,0.542,0.483c0.052,0.036,0.104,0.074,0.159,0.106
		c0.042,0.024,0.079,0.07,0.137,0.056c0.063,0.044,0.123,0.098,0.188,0.139c0.056,0.035,0.119,0.059,0.179,0.088
		c0.145,0.066,0.271,0.166,0.426,0.211l0.137,0.068c0.053,0.025,0.104,0.058,0.163,0.067c0.033,0.069,0.105,0.099,0.167,0.134
		c0.047,0.025,0.087,0.061,0.134,0.086c0.036,0.02,0.066,0.051,0.194,0.128c0.033,0.024,0.071,0.042,0.106,0.062
		c0.09,0.04,0.176,0.092,0.261,0.143c0.144,0.087,0.314,0.128,0.448,0.233c0.028,0.023,0.073,0.026,0.113,0.035
		c0.035,0.043,0.09,0.055,0.136,0.08c0.043,0.025,0.087,0.048,0.136,0.056l0.123,0.083c0.061,0.086,0.07,0.225,0.166,0.279
		c0.04,0.023,0.116,0.003,0.168-0.013c0.079-0.022,0.152-0.069,0.227-0.103h0.137c0.049,0.047,0.11,0.082,0.149,0.141
		c0.021,0.033,0.06,0.08,0.038,0.118c-0.022,0.04-0.069,0.065-0.104,0.095l-0.164,0.084c-0.102,0.051-0.129,0.18-0.092,0.279
		c0.036,0.096,0.042,0.201,0.033,0.304c-0.009,0.093-0.101,0.12-0.161,0.165c-0.088,0.061-0.136,0.194-0.078,0.297
		c0.054,0.098,0.199,0.166,0.318,0.003c0.004-0.067-0.027-0.14-0.016-0.204c0.007-0.037,0.048-0.069,0.072-0.104
		c0.279,0.043,0.565-0.008,0.936,0.107c-0.139,0.113-0.334,0.102-0.482,0.194c-0.073,0.046-0.134,0.11-0.213,0.144
		c-0.027,0.011-0.051,0.027-0.164,0.044l-0.532,0.521l0.05,0.107c-0.005,0.089-0.008,0.184,0.112,0.312
		c0.132,0.034,0.242-0.069,0.313-0.165c0.041-0.055,0.072-0.118,0.124-0.158c0.118-0.095,0.314-0.093,0.417,0.041
		c0.022,0.028-0.007,0.098-0.011,0.146c0.033-0.005,0.07-0.004,0.1-0.018c0.097-0.043,0.19,0.001,0.28,0.013
		c0.184,0.022,0.319-0.15,0.312-0.313c-0.002-0.07,0.054-0.111,0.111-0.145c0.078-0.047,0.144-0.149,0.112-0.24
		c-0.028-0.085-0.096-0.152-0.167-0.207c-0.086-0.065-0.155-0.158-0.196-0.315c0.12-0.058,0.252-0.056,0.408-0.071
		c0.111-0.006,0.202-0.085,0.296-0.127c0.095-0.039,0.194-0.08,0.296-0.106c0.079-0.021,0.17,0.007,0.212,0.057
		c0.096,0.112,0.093,0.304-0.024,0.407c-0.063,0.057-0.157,0.076-0.234,0.115c-0.003,0.152,0.081,0.288,0.156,0.418
		c0.034,0.059,0.16,0.055,0.218,0.105c0.109,0.091,0.1,0.247,0.02,0.357c-0.077,0.105-0.124,0.264-0.058,0.393
		c0.039,0.079,0.16,0.098,0.22,0.049c0.038-0.031,0.067-0.095,0.072-0.145c0.006-0.059-0.044-0.125,0.028-0.255
		c0.154-0.007,0.309,0.034,0.446,0.1c0.041,0.021,0.135,0.003,0.149-0.023c0.121-0.224,0.022-0.558-0.337-0.753
		c-0.069-0.037-0.139,0.046-0.218,0.064l-0.083-0.109c0.06-0.109,0.162-0.066,0.243-0.031l0.104-0.094
		c-0.037-0.082-0.078-0.162-0.11-0.246c-0.031-0.086,0.009-0.229,0.113-0.25c0.113-0.021,0.233-0.007,0.404-0.008l0.246,0.027
		l0.301,0.027c0.247,0.023,0.492,0.057,0.73,0.137c0.236-0.106,0.471-0.201,0.773-0.355l0.122-0.018l-0.15,0.098l0.164-0.025
		l0.22-0.027l0.147-0.061l0.126,0.033c0.659,0.058,1.317,0.019,1.969-0.098c0.148-0.025,0.244-0.158,0.377-0.216
		c0.125-0.054,0.262-0.065,0.393-0.097c0.036-0.008,0.086,0.016,0.205,0.125c0.091,0.068,0.231,0.059,0.321,0.006
		c0.032-0.02,0.053-0.075,0.062-0.116c0.016-0.065-0.008-0.139,0.095-0.276c0.041-0.025,0.102-0.024,0.128-0.057
		c0.096-0.123,0.221-0.213,0.36-0.285c0.038,0.006,0.077-0.003,0.199-0.032c0.06,0.023,0.127,0.056,0.169,0.103
		c0.055,0.062,0.067,0.164,0.122,0.229c0.043,0.052,0.156,0.032,0.18,0.104c0.029,0.086,0.046,0.182,0.034,0.268
		c-0.016,0.104-0.096,0.19-0.119,0.296c-0.02,0.085,0.019,0.226,0.127,0.214c0.077-0.007,0.16-0.037,0.236-0.146
		c-0.003-0.057-0.015-0.112-0.021-0.169c0.034-0.016,0.066-0.046,0.1-0.047c0.077-0.004,0.159,0.01,0.232,0.033
		c0.038,0.014,0.064,0.075,0.1,0.078c0.056,0.007,0.127-0.017,0.214-0.139c0.121-0.235-0.069-0.509-0.373-0.725
		c0.032-0.083,0.067-0.17,0.018-0.26c-0.033-0.059-0.091-0.113-0.099-0.176c-0.006-0.047,0.038-0.101,0.054-0.178
		c0.045-0.027,0.086-0.064,0.138-0.109c0.079-0.054,0.158-0.111,0.245-0.151c0.061-0.028,0.131-0.058,0.192-0.123l0.165-0.122
		c0.127-0.095,0.222-0.234,0.38-0.271c0.098-0.022,0.203-0.058,0.263-0.146c0.088-0.13,0.141-0.295,0.264-0.397
		c0.284-0.239,0.575-0.474,0.897-0.828c0.04-0.031,0.07-0.075,0.096-0.122c0.023-0.041,0.064-0.072,0.095-0.11l0.096-0.108
		c0.028-0.033,0.045-0.074,0.069-0.137c0.047-0.018,0.059-0.072,0.081-0.137l0.137-0.165c0.062-0.036,0.085-0.108,0.125-0.163
		c0.036-0.049,0.094-0.08,0.164-0.192c0.017-0.024,0.028-0.054,0.136-0.163c0.024-0.021,0.046-0.047,0.067-0.076l0.004,0.001
		c0.044-0.056,0.082-0.118,0.118-0.179c0.052-0.087,0.154-0.136,0.207-0.32c0.056-0.06,0.134-0.111,0.162-0.182l0.184-0.471
		c0.064-0.163,0.104-0.336,0.173-0.523c0.038-0.027,0.049-0.072,0.068-0.11c0.027-0.052,0.058-0.104,0.07-0.165v-0.135
		c0.008-0.049,0.008-0.105,0.09-0.22l0.073-0.108l-0.109,0.191c0.049-0.019,0.107-0.038,0.133-0.077
		c0.121-0.188,0.268-0.354,0.375-0.548c0.069-0.127,0.184-0.236,0.203-0.388c0.026-0.034,0.035-0.077,0.044-0.118l0.035-0.154
		l0.059-0.123c0.037-0.064,0.07-0.133,0.109-0.196c0.024-0.039,0.018-0.097,0.063-0.233l0.018-0.131
		c0.067-0.136,0.091-0.285,0.124-0.432c0.031-0.137,0.048-0.275,0.04-0.416v-0.109C-48.846-105.459-48.829-105.863-48.83-106.268"/>
	<path fill="#231F20" d="M-60.808-109.211c-0.045-0.018-0.085-0.045-0.11-0.084c-0.041-0.061-0.075-0.13-0.099-0.198
		c-0.028-0.077-0.06-0.157-0.06-0.237c0-0.113,0.028-0.229,0.017-0.342c-0.026-0.245-0.033-0.51,0.083-0.738
		c0.052-0.104,0.111-0.227,0.238-0.26l0.123,0.027c0.038-0.055,0.135-0.031,0.22-0.055c0.1-0.029,0.038,0.068,0.055,0.082
		c0.125-0.019,0.221-0.057,0.267-0.023c0.168,0.125,0.341,0.25,0.457,0.43c0.112,0.178,0.159,0.334,0.106,0.457
		c-0.011,0.027,0.024,0.074,0.036,0.113c0.009,0.027,0.004,0.062,0.02,0.084c0.221,0.358,0.451,0.711,0.647,1.082
		c-0.019,0.264-0.209,0.565-0.489,0.607c-0.197,0.029-0.398,0.003-0.595,0.013c-0.15,0.006-0.252-0.162-0.395-0.182l-0.099-0.019
		c-0.151-0.029-0.316-0.098-0.379-0.238l-0.069-0.15c0.055-0.12,0.059-0.199,0.052-0.277
		C-60.785-109.15-60.799-109.181-60.808-109.211 M-63.651-110.004c0.068-0.021,0.163-0.059,0.209-0.027
		c0.492,0.326,0.56,1.068,0.204,1.512c-0.105,0.131-0.272,0.159-0.428,0.156c-0.385-0.01-0.747-0.173-1.045-0.404
		c-0.076-0.059-0.152-0.178-0.089-0.279c-0.087-0.097-0.172-0.17-0.256-0.242c-0.119-0.104-0.096-0.287-0.056-0.422
		c0.018-0.061,0.015-0.133,0.048-0.182c0.045-0.067,0.123-0.153,0.188-0.155c0.293-0.011,0.581-0.001,0.869,0.044h0.356V-110.004z
		 M-62.693-107.789c0.076-0.051,0.165-0.006,0.225,0.041c0.211,0.161,0.392,0.258,0.462,0.425c0.025,0.059,0.05,0.126,0.059,0.185
		c0.009,0.066,0.021,0.087,0.046,0.165c0.019,0.06-0.033,0.14-0.042,0.211c-0.005,0.042,0.009,0.088-0.002,0.128
		c-0.053,0.198-0.196,0.402-0.421,0.415c-0.472,0.028-0.948,0.026-1.419,0c-0.249-0.014-0.447-0.243-0.399-0.488
		c0.045-0.229,0.07-0.459,0.08-0.692c0.002-0.059,0.016-0.117,0.024-0.176c0.057-0.05,0.031-0.085,0.039-0.113
		c0.036-0.166,0.204-0.266,0.362-0.279c0.212-0.016,0.436-0.057,0.64,0.004c0.06,0.018,0.127,0.021,0.179,0.051
		c0.03,0.019,0.042,0.062,0.06,0.098L-62.693-107.789z M-56.842-109.867c0.11,0.333,0.095,0.627-0.042,0.828
		c-0.061,0.089-0.14,0.169-0.241,0.215c-0.128,0.056-0.26-0.007-0.373-0.074c-0.367-0.218-0.627-0.621-0.677-1.051
		c-0.01-0.107,0.063-0.219,0.133-0.307c0.088-0.11,0.241-0.105,0.368-0.105c0.225,0.003,0.416,0.008,0.56,0.096
		c0.131,0.078,0.22,0.207,0.286,0.344L-56.842-109.867z M-63.76-104.781c0.028-0.005,0.056-0.005,0.082-0.014
		c0.03-0.01,0.055-0.027,0.083-0.041c0.287-0.246,0.631-0.269,0.93-0.15c0.089,0.088,0.211,0.139,0.291,0.241
		c0.111,0.143,0.117,0.354-0.002,0.493c-0.083,0.094-0.081,0.22-0.07,0.336c0.033,0.34-0.267,0.66-0.609,0.642
		c-0.325-0.018-0.603,0.029-0.832-0.069c-0.306-0.133-0.51-0.436-0.535-0.756c-0.026-0.35,0.253-0.611,0.562-0.736
		C-63.837-104.846-63.792-104.801-63.76-104.781 M-66.221-104.81c-0.003-0.059-0.026-0.112-0.055-0.163
		c-0.352-0.402-0.3-0.98,0.091-1.264c0.149-0.11,0.355-0.088,0.528-0.036c0.328,0.006,0.633,0.109,0.911,0.277
		c0.206,0.125,0.416,0.323,0.429,0.569c0.003,0.066,0.036,0.146,0.011,0.198l-0.235,0.474l-0.313,0.314
		c-0.438,0.253-1.026,0.123-1.346-0.257C-66.221-104.723-66.217-104.77-66.221-104.81 M-60.561-106.449
		c0.011-0.093-0.021-0.139-0.011-0.172c0.052-0.156,0.146-0.312,0.299-0.394c0.13-0.067,0.259,0.009,0.388,0.053l0.408,0.14
		c0.155,0.053,0.214,0.221,0.29,0.359c0.057,0.104,0.149,0.189,0.175,0.313c0.034,0.161-0.035,0.335-0.164,0.517
		c-0.117,0.168-0.176,0.327-0.306,0.398c-0.167,0.093-0.377,0.108-0.551,0.054c-0.027-0.009-0.058-0.024-0.084-0.021
		c-0.157,0.021-0.309-0.075-0.472-0.216l-0.138-0.116c-0.185-0.156-0.152-0.528,0.048-0.798c0.026-0.035,0.042-0.08,0.073-0.111
		L-60.561-106.449z M-57.997-107.955c0.41-0.01,0.79,0.345,0.746,0.774c-0.021,0.201,0.007,0.417-0.069,0.61
		c-0.121,0.309-0.489,0.459-0.788,0.318c-0.13-0.061-0.222-0.176-0.312-0.283c-0.163-0.191-0.297-0.416-0.336-0.667
		c0.027-0.135,0.056-0.274,0.118-0.399C-58.52-107.834-58.241-107.949-57.997-107.955 M-61.764-104.152
		c-0.019-0.13,0.053-0.214,0.142-0.273c0.11-0.076,0.149-0.211,0.238-0.304c0.055-0.058,0.136-0.09,0.204-0.134l0.1,0.054
		c0.101-0.018,0.147-0.054,0.192-0.054s0.091,0.036,0.136,0.054c0.097,0.021,0.155-0.003,0.181,0.018
		c0.109,0.083,0.199,0.19,0.298,0.284c0.073,0.139,0.123,0.287,0.211,0.419c0.072,0.282,0.085,0.61-0.072,0.873
		c-0.127,0.214-0.367,0.276-0.601,0.267c-0.217-0.01-0.438,0.023-0.651-0.021c-0.262-0.051-0.449-0.236-0.473-0.443
		c-0.027-0.238-0.027-0.487,0.069-0.711L-61.764-104.152z"/>
	<path fill="#ED282A" d="M-35.459-107.784c0-1.719,1.289-2.96,3.531-2.96c2.244,0,3.819,1.338,3.819,3.484v0.955h6.826v-0.716
		c0-5.823-4.296-9.451-10.645-9.451c-6.49,0-10.261,4.296-10.261,9.164c0,4.534,2.481,7.255,7.255,8.974l4.916,1.766
		c2.051,0.715,2.625,2.053,2.625,3.389c0,1.909-1.48,3.293-4.343,3.293c-2.673,0-4.295-1.193-4.295-3.484v-1.383h-6.825v1.145
		c0,5.822,4.678,9.451,11.312,9.451s10.93-4.057,10.93-9.785c0-5.918-3.915-7.924-8.019-9.355l-4.104-1.432
		C-35.125-105.541-35.459-106.973-35.459-107.784"/>
	<path fill="#F37A20" d="M24.354-95.661c0,3.054-1.671,4.821-4.678,4.821h-4.295v-18.949h4.295c3.007,0,4.678,1.766,4.678,4.82
		V-95.661z M31.274-95.518v-9.595c0-6.682-4.2-10.882-11.598-10.882H8.46v31.357h11.216C27.075-84.637,31.274-88.836,31.274-95.518"
		/>
	<path fill="#8D2888" d="M2.607-93.848v-15.635v-6.512h-6.92h-10.755v6.512h10.755v15.491c0,2.243-1.193,3.628-3.246,3.628
		c-2.051,0-3.246-1.385-3.246-3.628v-1.098h-6.92v1.241c0,5.967,4.104,9.689,10.166,9.689S2.607-87.881,2.607-93.848"/>
</g>
</svg>
